<?xml version="1.0" encoding="UTF-8"?>
<svg width="600" height="800" viewBox="0 0 600 800" xmlns="http://www.w3.org/2000/svg">
    <defs>
        <filter id="blur">
            <feGaussianBlur in="SourceGraphic" stdDeviation="2"/>
        </filter>
    </defs>
    <g filter="url(#blur)">
        <!-- Main blood stain -->
        <path d="M100,100 C150,50 200,150 250,100 C300,50 350,150 400,100 C450,50 500,150 550,100" 
              fill="none" stroke="#8b0000" stroke-width="20" stroke-linecap="round"/>
        
        <!-- Dripping effect -->
        <path d="M150,200 C200,150 250,250 300,200 C350,150 400,250 450,200" 
              fill="none" stroke="#8b0000" stroke-width="15" stroke-linecap="round"/>
        
        <!-- Splatter effects -->
        <circle cx="200" cy="300" r="30" fill="#8b0000" opacity="0.7"/>
        <circle cx="400" cy="350" r="25" fill="#8b0000" opacity="0.7"/>
        <circle cx="300" cy="400" r="35" fill="#8b0000" opacity="0.7"/>
        
        <!-- Additional drips -->
        <path d="M250,450 C300,400 350,500 400,450" 
              fill="none" stroke="#8b0000" stroke-width="10" stroke-linecap="round"/>
        <path d="M150,500 C200,450 250,550 300,500" 
              fill="none" stroke="#8b0000" stroke-width="8" stroke-linecap="round"/>
    </g>
</svg> 